# xmcd
#
# Track frame offsets:
#	150
#	17980
#	33998
#	52720
#	68257
#	83478
#	97617
#	114689
#	133123
#	149246
#	161845
#	177959
#	191260
#	207433
#
# Disc length: 3005 seconds
# Revision: 2
# Processed by: cddbd v1.5.2PL0 Copyright (c) Steve Scherf et al.
# Submitted via: dBpowerAMP V12.0
#
DISCID=b60bbb0e
DTITLE=Various Artist - Real Country
DYEAR=2011
DGENRE=Country
TTITLE0=Rob Wilson - Grain Of Salt
TTITLE1=Rob Wilson - Real Country
TTITLE2=Rob Wilson - We're Still Together In My Dreams
TTITLE3=Rob Wilson - We're All Cowboys
TTITLE4=Rob Wilson - Your Memory Is Better Than Mine
TTITLE5=Rob Wilson - Burnin Again
TTITLE6=Rob Wilson - Feels Like Nothing
TTITLE7=Rob Wilson - Hooked
TTITLE8=Rob Wilson - Old Memories
TTITLE9=Rob Wilson - Should Have Gone Up To Noosa 
TTITLE10=Rob Wilson - Brain Drain
TTITLE11=Rob Wilson - Song For My Daughter
TTITLE12=Tara Naysmith and Rob Wilson - Do You Wanna Dance
TTITLE13=Rob Wilson - The Devil Went Down To Centrelink
EXTD=
EXTT0=
EXTT1=
EXTT2=
EXTT3=
EXTT4=
EXTT5=
EXTT6=
EXTT7=
EXTT8=
EXTT9=
EXTT10=
EXTT11=
EXTT12=
EXTT13=
PLAYORDER=
